<?xml version="1.0" standalone="no"?>
<!DOCTYPE svg PUBLIC "-//W3C//DTD SVG 20010904//EN"
 "http://www.w3.org/TR/2001/REC-SVG-20010904/DTD/svg10.dtd">
<svg version="1.0" xmlns="http://www.w3.org/2000/svg"
 width="1018.000000pt" height="1018.000000pt" viewBox="0 0 1018.000000 1018.000000"
 preserveAspectRatio="xMidYMid meet">
<metadata>
Created by potrace 1.14, written by Peter Selinger 2001-2017
</metadata>
<g transform="translate(0.000000,1018.000000) scale(0.100000,-0.100000)"
fill="#000000" stroke="none">
<path d="M2268 9255 c-2 -1 -25 -5 -53 -9 -121 -15 -272 -57 -385 -108 -25
-11 -50 -21 -56 -22 -7 -1 -18 -6 -25 -12 -8 -5 -39 -23 -69 -39 -190 -99
-423 -291 -599 -494 -25 -29 -55 -64 -66 -76 -11 -13 -27 -33 -35 -46 -8 -12
-22 -29 -30 -38 -26 -27 -90 -121 -90 -130 0 -5 -4 -11 -9 -13 -15 -6 -148
-225 -217 -357 -24 -46 -49 -90 -55 -97 -6 -8 -8 -14 -5 -14 4 0 -4 -19 -18
-42 -14 -24 -25 -46 -26 -50 0 -5 -11 -32 -24 -60 -49 -110 -64 -144 -71 -168
-4 -14 -11 -29 -15 -35 -3 -5 -19 -46 -34 -90 -15 -44 -32 -89 -36 -100 -9
-20 -90 -272 -96 -297 -1 -5 -2 -9 -4 -10 -1 -2 -3 -10 -5 -18 -1 -9 -12 -50
-23 -92 -12 -41 -24 -89 -27 -104 -3 -16 -12 -54 -20 -84 -9 -30 -18 -68 -20
-85 -5 -34 -9 -50 -25 -120 -6 -27 -13 -63 -15 -80 -2 -16 -8 -55 -14 -85 -14
-72 -19 -104 -27 -165 -9 -72 -12 -90 -14 -90 0 0 -3 -25 -5 -55 -3 -30 -8
-71 -11 -90 -9 -57 -21 -189 -31 -350 -10 -140 -9 -759 0 -890 10 -131 16
-208 22 -255 3 -22 7 -67 10 -100 3 -33 7 -71 10 -85 3 -14 8 -48 10 -76 3
-28 8 -62 10 -75 3 -13 8 -40 10 -59 5 -35 13 -84 21 -127 4 -25 8 -42 23
-118 5 -27 8 -52 5 -54 -2 -2 0 -9 6 -16 5 -6 12 -29 14 -51 3 -21 22 -102 42
-179 20 -77 37 -144 38 -150 11 -47 71 -243 83 -275 4 -8 7 -17 8 -20 12 -46
91 -261 118 -320 10 -24 20 -49 22 -55 7 -32 161 -347 215 -440 22 -38 43 -78
46 -87 4 -10 10 -18 15 -18 5 0 9 -5 9 -11 0 -15 127 -203 211 -312 107 -140
252 -296 359 -387 22 -19 49 -42 58 -51 41 -40 257 -186 272 -185 3 1 19 -8
35 -19 64 -44 227 -112 336 -140 97 -25 128 -32 189 -42 59 -10 313 -10 370
-1 25 4 61 10 80 13 30 4 51 8 103 21 4 1 8 2 10 4 1 1 9 3 17 5 8 3 22 6 30
8 15 4 29 9 85 30 17 7 32 12 35 13 59 11 376 192 432 247 7 7 23 20 35 28 58
40 238 212 310 295 59 69 97 116 137 169 25 33 50 65 56 72 8 10 105 160 167
259 20 31 148 267 149 273 0 3 19 44 41 91 23 47 54 114 68 150 15 36 36 85
47 110 11 24 22 51 23 60 2 8 4 17 5 20 1 3 2 8 1 13 0 4 3 7 8 7 5 0 12 16
16 36 3 20 11 44 16 53 12 22 108 322 113 355 1 6 5 17 9 24 5 6 6 12 2 12 -3
0 -1 8 4 19 6 10 13 31 16 47 3 16 12 56 20 89 9 33 17 69 20 80 2 11 9 43 15
70 6 28 13 61 16 75 2 14 7 36 10 50 3 14 8 36 10 50 2 14 7 36 10 48 2 13 7
42 10 64 7 45 12 73 14 73 1 0 3 16 5 35 11 92 13 107 18 135 6 32 14 93 23
185 3 30 7 71 9 90 9 79 18 220 19 292 1 43 3 78 6 78 7 0 4 594 -3 721 -5 86
-13 188 -24 289 -3 30 -7 71 -9 90 -2 19 -5 49 -7 65 -3 17 -8 57 -11 90 -4
33 -9 69 -11 80 -2 11 -7 36 -10 55 -2 19 -7 45 -9 56 -2 12 -7 39 -10 60 -4
22 -11 66 -18 99 -6 33 -12 69 -14 80 -1 11 -3 20 -4 20 -1 0 -3 9 -5 20 -8
37 -25 120 -31 145 -3 14 -7 30 -8 35 -1 6 -5 19 -9 30 -3 11 -8 31 -11 45
-26 136 -179 610 -228 704 -5 10 -11 26 -13 35 -10 45 -162 365 -229 481 -15
25 -32 57 -38 73 -7 15 -16 27 -20 27 -4 0 -8 5 -8 11 0 34 -260 392 -378 521
-77 83 -220 219 -267 253 -15 11 -32 25 -39 30 -84 74 -267 183 -411 245 -88
39 -231 82 -310 95 -22 3 -62 10 -88 14 -46 8 -302 13 -309 6z"/>
<path d="M7649 9256 c-2 -2 -29 -7 -60 -10 -31 -4 -65 -8 -75 -11 -384 -78
-727 -291 -1051 -651 -47 -53 -163 -199 -193 -244 -8 -12 -30 -42 -48 -66 -18
-24 -29 -44 -25 -44 4 0 3 -4 -2 -8 -26 -18 -145 -221 -236 -402 -35 -69 -64
-127 -64 -130 0 -3 -11 -27 -24 -55 -27 -61 -133 -326 -135 -340 -1 -5 -4 -14
-8 -20 -7 -13 -63 -186 -93 -290 -50 -176 -55 -196 -70 -265 -2 -8 -4 -15 -5
-15 -2 0 -6 -20 -14 -65 -4 -19 -9 -43 -12 -52 -6 -19 -13 -52 -20 -88 -2 -14
-7 -36 -10 -50 -3 -14 -8 -36 -10 -50 -2 -14 -7 -36 -10 -48 -6 -29 -17 -102
-17 -119 0 -7 -3 -13 -6 -13 -3 0 -6 -12 -7 -27 0 -16 -3 -50 -8 -78 -4 -27
-9 -65 -12 -82 -2 -18 -6 -48 -9 -65 -2 -18 -7 -64 -10 -103 -3 -38 -8 -79
-10 -91 -6 -40 -19 -219 -19 -286 -1 -38 -3 -68 -6 -68 -3 0 -5 -153 -5 -340
0 -187 2 -340 5 -340 3 0 5 -28 6 -63 0 -34 4 -98 8 -142 4 -44 9 -100 11
-125 2 -25 7 -72 10 -105 4 -33 9 -73 10 -90 4 -39 12 -96 25 -169 5 -32 7
-62 5 -67 -3 -4 -2 -10 3 -13 4 -2 9 -19 10 -36 1 -17 18 -109 38 -203 19 -95
37 -183 40 -197 9 -45 60 -232 105 -390 6 -19 13 -46 16 -60 3 -14 9 -29 13
-35 4 -5 17 -41 29 -80 33 -107 72 -208 99 -260 9 -16 16 -32 15 -35 -3 -21
158 -361 238 -503 52 -91 239 -378 262 -402 11 -11 42 -49 104 -125 70 -88
232 -249 329 -325 21 -16 42 -35 48 -40 21 -20 215 -145 224 -145 6 0 12 -3
14 -7 2 -5 44 -27 93 -49 141 -65 161 -74 181 -77 11 -1 24 -5 29 -9 8 -5 30
-11 85 -23 3 -1 19 -4 35 -8 17 -4 41 -10 55 -13 14 -3 39 -7 56 -8 17 -2 35
-5 40 -9 16 -9 399 3 399 13 0 2 23 7 70 15 47 8 199 57 264 86 68 30 175 83
181 90 3 3 20 14 39 24 30 15 58 33 140 93 177 127 364 314 525 527 25 33 49
65 53 70 5 6 24 35 43 65 19 30 37 57 41 60 37 30 329 587 343 655 1 6 4 15 8
20 8 14 70 167 72 180 1 6 4 15 7 20 4 6 25 69 48 140 24 72 45 137 48 145 3
8 7 20 9 27 1 7 9 34 17 60 22 72 68 241 73 271 3 15 9 43 14 62 8 31 26 118
46 220 4 19 8 46 10 60 1 14 3 25 4 25 2 0 4 9 5 20 2 11 6 35 9 53 10 55 16
89 21 128 3 22 7 53 9 69 2 17 7 53 10 80 4 28 9 64 11 80 3 17 7 62 11 100 3
39 7 90 10 115 20 234 25 848 9 1060 -14 199 -25 309 -30 330 -2 8 -7 42 -10
75 -3 33 -7 71 -9 85 -3 14 -7 41 -10 60 -2 19 -8 58 -12 85 -3 28 -9 59 -11
70 -2 11 -6 34 -9 50 -12 69 -56 283 -66 320 -6 22 -12 49 -14 60 -3 23 -6 35
-34 135 -11 41 -22 82 -24 90 -2 8 -12 42 -22 75 -10 33 -19 63 -20 68 -1 4
-3 9 -4 12 -1 3 -4 10 -5 15 -1 6 -3 11 -5 13 -1 1 -3 10 -6 20 -6 26 -10 41
-17 57 -38 102 -87 239 -87 243 0 4 -13 36 -30 72 -16 36 -30 70 -30 75 0 5
-9 25 -20 45 -11 20 -20 42 -20 50 0 8 -4 15 -10 15 -5 0 -10 6 -10 14 0 16
-123 260 -162 321 -14 22 -26 43 -27 47 -4 21 -170 271 -183 276 -4 2 -8 8 -8
13 0 14 -73 107 -190 243 -61 71 -208 211 -293 279 -173 138 -427 279 -572
317 -16 5 -55 15 -87 24 -103 28 -182 38 -329 42 -81 1 -148 1 -150 0z"/>
</g>
</svg>
