<?xml version="1.0" encoding="UTF-8"?>
<svg id="Layer_1" data-name="Layer 1" xmlns="http://www.w3.org/2000/svg" viewBox="0 0 488.46 331.76">
  <defs>
    <style>
      .cls-1 {
        fill: #f1f2f2;
      }

      .cls-1, .cls-2 {
        stroke-width: 0px;
      }

      .cls-2 {
        fill: #c796c4;
      }
    </style>
  </defs>
  <g>
    <g>
      <rect class="cls-2" y="33.99" width="488.46" height="245.23"/>
      <rect class="cls-1" x="4.92" y="36.88" width="34.28" height="13.8"/>
      <rect class="cls-1" x="49.56" y="36.88" width="34.28" height="13.8"/>
      <rect class="cls-1" x="94.19" y="36.88" width="34.28" height="13.8"/>
      <rect class="cls-1" x="183.46" y="36.88" width="34.28" height="13.8"/>
      <rect class="cls-1" x="138.83" y="36.88" width="34.28" height="13.8"/>
      <rect class="cls-1" x="228.1" y="36.88" width="34.28" height="13.8"/>
      <rect class="cls-1" x="272.73" y="36.88" width="34.28" height="13.8"/>
      <rect class="cls-1" x="317.37" y="36.88" width="34.28" height="13.8"/>
      <rect class="cls-1" x="362.01" y="36.88" width="34.28" height="13.8"/>
      <rect class="cls-1" x="406.64" y="36.88" width="34.28" height="13.8"/>
      <rect class="cls-1" x="451.28" y="36.88" width="34.28" height="13.8"/>
      <rect class="cls-1" x="3.91" y="260.38" width="34.28" height="13.8"/>
      <rect class="cls-1" x="48.55" y="260.38" width="34.28" height="13.8"/>
      <rect class="cls-1" x="93.18" y="260.38" width="34.28" height="13.8"/>
      <rect class="cls-1" x="182.45" y="259.92" width="34.28" height="13.8"/>
      <rect class="cls-1" x="137.82" y="260.38" width="34.28" height="13.8"/>
      <rect class="cls-1" x="227.09" y="259.92" width="34.28" height="13.8"/>
      <rect class="cls-1" x="271.72" y="259.92" width="34.28" height="13.8"/>
      <rect class="cls-1" x="316.36" y="259.92" width="34.28" height="13.8"/>
      <rect class="cls-1" x="361" y="259.92" width="34.28" height="13.8"/>
      <rect class="cls-1" x="405.63" y="259.92" width="34.28" height="13.8"/>
      <rect class="cls-1" x="450.27" y="259.92" width="34.28" height="13.8"/>
    </g>
    <path class="cls-1" d="M463.94,61.74c9.59,0,17.36,5.81,17.36,12.99v163.76c0,7.17-7.77,12.99-17.36,12.99H24.52c-9.59,0-17.36-5.81-17.36-12.99V74.73c0-6.69,6.76-12.2,15.45-12.91"/>
    <path class="cls-1" d="M22.61,61.82c.63-.05,1.27-.08,1.91-.08h439.41"/>
  </g>
  <g>
    <g>
      <ellipse class="cls-1" cx="351.35" cy="165.88" rx="95.47" ry="165.88"/>
      <ellipse class="cls-2" cx="339.52" cy="188.6" rx="47.73" ry="82.94"/>
      <ellipse class="cls-1" cx="355.73" cy="115.88" rx="24.19" ry="42.03"/>
    </g>
    <g>
      <ellipse class="cls-1" cx="137.11" cy="165.88" rx="95.47" ry="165.88"/>
      <ellipse class="cls-2" cx="107.67" cy="188.6" rx="47.73" ry="82.94"/>
      <ellipse class="cls-1" cx="120.65" cy="108.73" rx="24.19" ry="42.03"/>
    </g>
  </g>
</svg>