<?xml version="1.0" encoding="UTF-8"?>
<svg id="Layer_1" data-name="Layer 1" xmlns="http://www.w3.org/2000/svg" viewBox="0 0 488.46 332.76">
  <defs>
    <style>
      .cls-1 {
        stroke: #c796c4;
        stroke-miterlimit: 10;
      }

      .cls-1, .cls-2 {
        fill: #f1f2f2;
      }

      .cls-2, .cls-3 {
        stroke-width: 0px;
      }

      .cls-3 {
        fill: #c796c4;
      }
    </style>
  </defs>
  <g>
    <g>
      <rect class="cls-3" y="34.49" width="488.46" height="245.23"/>
      <rect class="cls-2" x="4.92" y="37.38" width="34.28" height="13.8"/>
      <rect class="cls-2" x="49.56" y="37.38" width="34.28" height="13.8"/>
      <rect class="cls-2" x="94.19" y="37.38" width="34.28" height="13.8"/>
      <rect class="cls-2" x="183.46" y="37.38" width="34.28" height="13.8"/>
      <rect class="cls-2" x="138.83" y="37.38" width="34.28" height="13.8"/>
      <rect class="cls-2" x="228.1" y="37.38" width="34.28" height="13.8"/>
      <rect class="cls-2" x="272.73" y="37.38" width="34.28" height="13.8"/>
      <rect class="cls-2" x="317.37" y="37.38" width="34.28" height="13.8"/>
      <rect class="cls-2" x="362.01" y="37.38" width="34.28" height="13.8"/>
      <rect class="cls-2" x="406.64" y="37.38" width="34.28" height="13.8"/>
      <rect class="cls-2" x="451.28" y="37.38" width="34.28" height="13.8"/>
      <rect class="cls-2" x="3.91" y="260.88" width="34.28" height="13.8"/>
      <rect class="cls-2" x="48.55" y="260.88" width="34.28" height="13.8"/>
      <rect class="cls-2" x="93.18" y="260.88" width="34.28" height="13.8"/>
      <rect class="cls-2" x="182.45" y="260.42" width="34.28" height="13.8"/>
      <rect class="cls-2" x="137.82" y="260.88" width="34.28" height="13.8"/>
      <rect class="cls-2" x="227.09" y="260.42" width="34.28" height="13.8"/>
      <rect class="cls-2" x="271.72" y="260.42" width="34.28" height="13.8"/>
      <rect class="cls-2" x="316.36" y="260.42" width="34.28" height="13.8"/>
      <rect class="cls-2" x="361" y="260.42" width="34.28" height="13.8"/>
      <rect class="cls-2" x="405.63" y="260.42" width="34.28" height="13.8"/>
      <rect class="cls-2" x="450.27" y="260.42" width="34.28" height="13.8"/>
    </g>
    <path class="cls-2" d="M463.94,62.24c9.59,0,17.36,5.81,17.36,12.99v163.76c0,7.17-7.77,12.99-17.36,12.99H24.52c-9.59,0-17.36-5.81-17.36-12.99V75.23c0-6.69,6.76-12.2,15.45-12.91"/>
    <path class="cls-2" d="M22.61,62.32c.63-.05,1.27-.08,1.91-.08h439.41"/>
  </g>
  <g>
    <g>
      <ellipse class="cls-1" cx="351.35" cy="166.38" rx="95.47" ry="165.88"/>
      <ellipse class="cls-3" cx="339.52" cy="189.1" rx="47.73" ry="82.94"/>
      <ellipse class="cls-2" cx="355.73" cy="116.38" rx="24.19" ry="42.03"/>
    </g>
    <g>
      <ellipse class="cls-1" cx="137.11" cy="166.38" rx="95.47" ry="165.88"/>
      <ellipse class="cls-3" cx="107.67" cy="189.1" rx="47.73" ry="82.94"/>
      <ellipse class="cls-2" cx="120.65" cy="109.23" rx="24.19" ry="42.03"/>
    </g>
  </g>
</svg>