<?xml version="1.0" encoding="UTF-8"?>
<svg id="Layer_1" data-name="Layer 1" xmlns="http://www.w3.org/2000/svg" viewBox="0 0 495.81 433.95">
  <defs>
    <style>
      .cls-1 {
        fill: #c696c4;
      }

      .cls-1, .cls-2, .cls-3 {
        stroke-width: 0px;
      }

      .cls-2 {
        fill: #f1f2f2;
      }

      .cls-3 {
        fill: #c796c4;
      }
    </style>
  </defs>
  <rect class="cls-1" width="495.81" height="13.07"/>
  <rect class="cls-1" y="36.23" width="495.81" height="13.07"/>
  <rect class="cls-1" x="10.89" width="5.81" height="49.31"/>
  <rect class="cls-1" x="55.08" width="5.81" height="49.31"/>
  <rect class="cls-1" x="99.26" width="5.81" height="49.31"/>
  <rect class="cls-1" x="143.45" width="5.81" height="49.31"/>
  <rect class="cls-1" x="187.64" width="5.81" height="49.31"/>
  <rect class="cls-1" x="231.82" width="5.81" height="49.31"/>
  <rect class="cls-1" x="276.01" width="5.81" height="49.31"/>
  <rect class="cls-1" x="320.19" width="5.81" height="49.31"/>
  <rect class="cls-1" x="364.38" width="5.81" height="49.31"/>
  <rect class="cls-1" x="408.49" width="5.81" height="49.31"/>
  <rect class="cls-1" x="452.68" y="0" width="5.81" height="49.31"/>
  <rect class="cls-1" y="384.64" width="495.81" height="13.07"/>
  <rect class="cls-1" y="420.88" width="495.81" height="13.07"/>
  <rect class="cls-1" x="10.89" y="384.64" width="5.81" height="49.31"/>
  <rect class="cls-1" x="55.08" y="384.64" width="5.81" height="49.31"/>
  <rect class="cls-1" x="99.26" y="384.64" width="5.81" height="49.31"/>
  <rect class="cls-1" x="143.45" y="384.64" width="5.81" height="49.31"/>
  <rect class="cls-1" x="187.64" y="384.64" width="5.81" height="49.31"/>
  <rect class="cls-1" x="231.82" y="384.64" width="5.81" height="49.31"/>
  <rect class="cls-1" x="276.01" y="384.64" width="5.81" height="49.31"/>
  <rect class="cls-1" x="320.19" y="384.64" width="5.81" height="49.31"/>
  <rect class="cls-1" x="364.38" y="384.64" width="5.81" height="49.31"/>
  <rect class="cls-1" x="408.49" y="384.64" width="5.81" height="49.31"/>
  <rect class="cls-1" x="452.68" y="384.64" width="5.81" height="49.31"/>
  <g>
    <g>
      <ellipse class="cls-2" cx="344.38" cy="218.34" rx="85.98" ry="149.4"/>
      <ellipse class="cls-3" cx="333.73" cy="238.81" rx="42.99" ry="74.7"/>
      <ellipse class="cls-2" cx="348.32" cy="173.31" rx="21.79" ry="37.85"/>
    </g>
    <g>
      <ellipse class="cls-2" cx="151.43" cy="218.34" rx="85.98" ry="149.4"/>
      <ellipse class="cls-3" cx="124.91" cy="238.81" rx="42.99" ry="74.7"/>
      <ellipse class="cls-2" cx="136.61" cy="166.87" rx="21.79" ry="37.85"/>
    </g>
  </g>
</svg>