<?xml version="1.0" encoding="UTF-8"?>
<svg id="Layer_1" data-name="Layer 1" xmlns="http://www.w3.org/2000/svg" viewBox="0 0 495.81 301.29">
  <defs>
    <style>
      .cls-1 {
        fill: #c696c4;
      }

      .cls-1, .cls-2, .cls-3 {
        stroke-width: 0px;
      }

      .cls-2 {
        fill: #f1f2f2;
      }

      .cls-3 {
        fill: #c796c4;
      }
    </style>
  </defs>
  <rect class="cls-1" width="495.81" height="13.07"/>
  <rect class="cls-1" y="36.23" width="495.81" height="13.07"/>
  <rect class="cls-1" x="10.89" width="5.81" height="49.31"/>
  <rect class="cls-1" x="55.08" width="5.81" height="49.31"/>
  <rect class="cls-1" x="99.26" width="5.81" height="49.31"/>
  <rect class="cls-1" x="143.45" width="5.81" height="49.31"/>
  <rect class="cls-1" x="187.64" width="5.81" height="49.31"/>
  <rect class="cls-1" x="231.82" width="5.81" height="49.31"/>
  <rect class="cls-1" x="276.01" width="5.81" height="49.31"/>
  <rect class="cls-1" x="320.19" width="5.81" height="49.31"/>
  <rect class="cls-1" x="364.38" width="5.81" height="49.31"/>
  <rect class="cls-1" x="408.49" width="5.81" height="49.31"/>
  <rect class="cls-1" x="452.68" y="0" width="5.81" height="49.31"/>
  <rect class="cls-1" y="251.98" width="495.81" height="13.07"/>
  <rect class="cls-1" y="288.22" width="495.81" height="13.07"/>
  <rect class="cls-1" x="10.89" y="251.98" width="5.81" height="49.31"/>
  <rect class="cls-1" x="55.08" y="251.98" width="5.81" height="49.31"/>
  <rect class="cls-1" x="99.26" y="251.98" width="5.81" height="49.31"/>
  <rect class="cls-1" x="143.45" y="251.98" width="5.81" height="49.31"/>
  <rect class="cls-1" x="187.64" y="251.98" width="5.81" height="49.31"/>
  <rect class="cls-1" x="231.82" y="251.98" width="5.81" height="49.31"/>
  <rect class="cls-1" x="276.01" y="251.98" width="5.81" height="49.31"/>
  <rect class="cls-1" x="320.19" y="251.98" width="5.81" height="49.31"/>
  <rect class="cls-1" x="364.38" y="251.98" width="5.81" height="49.31"/>
  <rect class="cls-1" x="408.49" y="251.98" width="5.81" height="49.31"/>
  <rect class="cls-1" x="452.68" y="251.98" width="5.81" height="49.31"/>
  <g>
    <g>
      <path class="cls-3" d="M249.09,124.01c1.75,7.76,6.93,12.35,16.53,12.35,10.69,0,14.78-5.34,14.78-11.69s-2.92-10.69-15.78-13.86c-12.36-3.09-17.7-7.1-17.7-15.53,0-7.68,5.59-14.86,18.12-14.86s18.28,7.85,19.03,14.94h-4.67c-1.34-6.26-5.43-10.77-14.61-10.77-8.43,0-13.02,3.92-13.02,10.44s3.84,8.93,14.61,11.6c16.45,4.09,18.87,10.69,18.87,17.7,0,8.6-6.26,16.03-19.79,16.03-14.61,0-19.95-8.52-21.04-16.36h4.67Z"/>
      <path class="cls-3" d="M332.32,110.99h-29.8v24.54h32.64l-.67,4.17h-36.48v-58.44h35.81v4.17h-31.3v21.37h29.8v4.17Z"/>
      <path class="cls-3" d="M380.99,110.99h-29.8v24.54h32.64l-.67,4.17h-36.48v-58.44h35.81v4.17h-31.3v21.37h29.8v4.17Z"/>
    </g>
    <g>
      <path class="cls-3" d="M244.31,228.74v-58.44h6.68c9.1,14.02,30.47,46.67,34.14,53.01h.08c-.5-8.43-.42-17.03-.42-26.55v-26.46h4.59v58.44h-6.18c-8.68-13.52-30.39-47.5-34.56-53.93h-.08c.42,7.68.33,16.2.33,26.8v27.13h-4.59Z"/>
      <path class="cls-3" d="M340.07,200.03h-29.8v24.54h32.64l-.67,4.17h-36.48v-58.44h35.81v4.17h-31.3v21.37h29.8v4.17Z"/>
      <path class="cls-3" d="M405.01,201.86c0-11.44.08-22.37.33-28.22h-.25c-2.34,7.85-14.19,36.65-21.62,55.1h-4.42c-5.59-14.28-17.86-46.33-20.54-55.18h-.17c.42,6.68.58,20.29.58,30.3v24.88h-4.51v-58.44h6.76c8.01,20.04,18.12,46.25,20.29,52.84h.17c1.34-4.26,13.02-33.39,21.2-52.84h6.68v58.44h-4.51v-26.88Z"/>
      <path class="cls-3" d="M431.89,208.54l-7.43,20.2h-4.59l21.45-58.44h5.34l22.37,58.44h-4.93l-7.6-20.2h-24.63ZM455.02,204.37c-6.51-17.36-9.85-25.71-11.02-29.64h-.08c-1.42,4.42-5.18,14.78-10.43,29.64h21.54Z"/>
    </g>
    <g>
      <g>
        <ellipse class="cls-2" cx="182.5" cy="150.64" rx="46.6" ry="80.97"/>
        <ellipse class="cls-3" cx="176.72" cy="161.74" rx="23.3" ry="40.49"/>
        <ellipse class="cls-2" cx="184.63" cy="126.24" rx="11.81" ry="20.52"/>
      </g>
      <g>
        <ellipse class="cls-2" cx="77.92" cy="150.64" rx="46.6" ry="80.97"/>
        <ellipse class="cls-3" cx="63.54" cy="161.74" rx="23.3" ry="40.49"/>
        <ellipse class="cls-2" cx="69.88" cy="122.75" rx="11.81" ry="20.52"/>
      </g>
    </g>
  </g>
</svg>