<?xml version="1.0" encoding="UTF-8"?>
<svg id="Layer_1" data-name="Layer 1" xmlns="http://www.w3.org/2000/svg" version="1.1" viewBox="0 0 24 24">
  <defs>
    <style>
      .cls-1 {
        fill: #c996cc;
        stroke-width: 0px;
      }
    </style>
  </defs>
  <path class="cls-1" d="M14.1,19.3c-.5.5-.9.9-1.4,1.4-.2.2-.4.3-.7.3s-.5,0-.7-.3C6.3,15.9,2,11.9,2,8.2S4.6,3,7.2,3s3.6.9,4.8,2.6c1.1-1.7,2.9-2.6,4.8-2.6,2.6,0,5.2,1.8,5.2,5.2s-.1,1.4-.4,2.1c-.4-.4-.8-.7-1.3-.9.1-.4.2-.8.2-1.1,0-2.5-1.9-3.7-3.7-3.7s-3.2,1.4-4.2,2.7c-.1.2-.4.3-.6.3-.2,0-.5-.1-.6-.3-1-1.3-2.2-2.7-4.2-2.7-1,0-1.9.3-2.6.9-.7.7-1.1,1.6-1.1,2.7,0,2.7,3,5.8,8.5,11.1.3-.3.7-.7,1-1,.3.4.7.7,1.1,1ZM17.5,10c2.6,0,4.5,2.1,4.5,4.5s-2.1,4.5-4.5,4.5-4.5-2.1-4.5-4.5,1.9-4.5,4.5-4.5ZM18,14v-1.5c0-.3-.2-.5-.5-.5s-.5.2-.5.5v1.5h-1.5c-.3,0-.5.2-.5.5s.2.5.5.5h1.5v1.5c0,.3.2.5.5.5s.5-.2.5-.5v-1.5h1.5c.3,0,.5-.2.5-.5s-.2-.5-.5-.5h-1.5Z"/>
</svg>