<?xml version="1.0" encoding="UTF-8"?>
<svg id="Layer_1" data-name="Layer 1" xmlns="http://www.w3.org/2000/svg" viewBox="0 0 20 18">
  <defs>
    <style>
      .cls-1 {
        fill: #c996cc;
        stroke-width: 0px;
      }
    </style>
  </defs>
  <path class="cls-1" d="M12.12,16.34c-.47.45-.94.91-1.43,1.38-.19.19-.45.28-.7.28s-.5-.09-.7-.28C4.35,12.9,0,8.9,0,5.18,0-.48,7.38-1.8,10,2.72c2.6-4.48,10-3.22,10,2.46,0,.68-.14,1.37-.41,2.07-1.06-1.02-2.5-1.65-4.09-1.65-3.26,0-5.9,2.64-5.9,5.9,0,2,1,3.77,2.52,4.84ZM15.5,7c2.48,0,4.5,2.02,4.5,4.5s-2.02,4.5-4.5,4.5-4.5-2.02-4.5-4.5,2.02-4.5,4.5-4.5ZM16.21,11.5s.64-.64,1.06-1.06c.19-.19.19-.52,0-.71-.19-.19-.52-.19-.71,0-.42.42-1.06,1.06-1.06,1.06,0,0-.64-.64-1.06-1.06-.19-.19-.52-.19-.71,0-.19.19-.19.52,0,.71l1.06,1.06-1.06,1.06c-.19.19-.19.52,0,.71.19.19.52.19.71,0,.42-.42,1.06-1.06,1.06-1.06,0,0,.64.64,1.06,1.06.19.19.52.19.71,0,.19-.19.19-.52,0-.71-.42-.42-1.06-1.06-1.06-1.06Z"/>
</svg>