<?xml version="1.0" encoding="UTF-8"?>
<svg id="Layer_1" data-name="Layer 1" xmlns="http://www.w3.org/2000/svg" viewBox="0 0 63.03 74.63">
  <defs>
    <style>
      .cls-1 {
        fill: #c796c4;
        stroke: #c796c4;
        stroke-miterlimit: 10;
        stroke-width: .18px;
      }
    </style>
  </defs>
  <path class="cls-1" d="M46.21,23.62s4.4-3.2,5.68-4.67c0,0,6.28-2.7,8.9-6.65,2.62-3.97,2.38-5.85,1.68-12.14,0,0-1.88,1.18-6.54,1.18,0,0-1.68-2.63-19.48,1.11,0,0-9.03,1.85-18.43,10.12,0,0-2.72,2.26-4.16,8.53l-1.2,7.85s-.18,5.81,4.87,8.48c0,0-.81.87,10.55,2.6,0,0,17.09,3.61,18.77,8.38,1.68,4.79-10.68,9.06-10.68,9.06,0,0-11.73,4.58-25.73,3.37l3.01-3.35s.94-2-1.2-1.32c-2.15.67-4.74,1.32-7.02,3.85C2.97,62.55.11,73.75.11,73.75c0,0,31.46,4.79,47.75-9.32,0,0,9.87-7.18,4.03-20.4,0,0-1.88-5.47-12.49-8.14,0,0-16.33-5.13-18.3-7.32-1.96-2.22,10.34-12.43,16.15-12.43,0,0,9.03-2.65,13.06-1.71,0,0,1.41.22-.73,1.71-2.15,1.49-4.63,4.82-4.63,5.88s1.26,1.61,1.26,1.61Z"/>
</svg>